<?xml version="1.0" encoding="UTF-8" standalone="no"?>
<!-- Created with Inkscape (http://www.inkscape.org/) -->

<svg
   xmlns:dc="http://purl.org/dc/elements/1.1/"
   xmlns:cc="http://creativecommons.org/ns#"
   xmlns:rdf="http://www.w3.org/1999/02/22-rdf-syntax-ns#"
   xmlns:svg="http://www.w3.org/2000/svg"
   xmlns="http://www.w3.org/2000/svg"
   xmlns:sodipodi="http://sodipodi.sourceforge.net/DTD/sodipodi-0.dtd"
   xmlns:inkscape="http://www.inkscape.org/namespaces/inkscape"
   width="304.42899"
   height="304.42902"
   viewBox="0 0 80.546837 80.546844"
   version="1.1"
   id="svg8"
   inkscape:version="0.92.4 (5da689c313, 2019-01-14)"
   sodipodi:docname="cabin icon.svg">
  <defs
     id="defs2" />
  <sodipodi:namedview
     id="base"
     pagecolor="#ffffff"
     bordercolor="#666666"
     borderopacity="1.0"
     inkscape:pageopacity="0.0"
     inkscape:pageshadow="2"
     inkscape:zoom="0.70710678"
     inkscape:cx="374.36058"
     inkscape:cy="154.47491"
     inkscape:document-units="mm"
     inkscape:current-layer="layer4"
     showgrid="false"
     showguides="true"
     inkscape:guide-bbox="true"
     inkscape:object-paths="true"
     inkscape:snap-global="false"
     inkscape:window-width="1366"
     inkscape:window-height="705"
     inkscape:window-x="-8"
     inkscape:window-y="-8"
     inkscape:window-maximized="1"
     inkscape:pagecheckerboard="false"
     showborder="false"
     fit-margin-top="0"
     fit-margin-left="0"
     fit-margin-right="0"
     fit-margin-bottom="0"
     units="px" />
  <metadata
     id="metadata5">
    <rdf:RDF>
      <cc:Work
         rdf:about="">
        <dc:format>image/svg+xml</dc:format>
        <dc:type
           rdf:resource="http://purl.org/dc/dcmitype/StillImage" />
        <dc:title></dc:title>
      </cc:Work>
    </rdf:RDF>
  </metadata>
  <g
     inkscape:label="bg"
     inkscape:groupmode="layer"
     id="layer1"
     transform="translate(-15.273603,-18.112551)" />
  <g
     inkscape:groupmode="layer"
     id="layer3"
     inkscape:label="cab"
     style="display:none"
     transform="translate(-15.273603,-18.112551)">
    <path
       style="fill:none;stroke:#000000;stroke-width:0.26458332px;stroke-linecap:butt;stroke-linejoin:miter;stroke-opacity:1"
       d="m 299.27679,165.71908 -31.37483,23.86004 0.009,50.54575 h 62.74086 v -50.54575 z"
       id="path4569"
       inkscape:connector-curvature="0" />
    <path
       style="fill:none;stroke:#000000;stroke-width:2.06500006;stroke-linecap:round;stroke-linejoin:round;stroke-miterlimit:4;stroke-dasharray:none;stroke-opacity:1"
       d="m 334.70913,168.06535 h 52.41112"
       id="path4577"
       inkscape:connector-curvature="0" />
    <path
       style="fill:none;stroke:#000000;stroke-width:2.06500006;stroke-linecap:round;stroke-linejoin:round;stroke-miterlimit:4;stroke-dasharray:none;stroke-opacity:1"
       d="m 351.46422,155.30384 h 25.17822"
       id="path4579"
       inkscape:connector-curvature="0" />
    <path
       style="fill:none;stroke:#000000;stroke-width:2.06500006;stroke-linecap:round;stroke-linejoin:round;stroke-miterlimit:4;stroke-dasharray:none;stroke-opacity:1"
       d="M 416.509,168.06535 H 394.53577"
       id="path4581"
       inkscape:connector-curvature="0" />
    <path
       style="fill:none;stroke:#000000;stroke-width:2.06500006;stroke-linecap:round;stroke-linejoin:round;stroke-miterlimit:4;stroke-dasharray:none;stroke-opacity:1"
       d="M 399.69448,155.27827 H 382.58032"
       id="path4583"
       inkscape:connector-curvature="0" />
    <path
       style="fill:none;stroke:#000000;stroke-width:2.06500006;stroke-linecap:round;stroke-linejoin:round;stroke-miterlimit:4;stroke-dasharray:none;stroke-opacity:1"
       d="M 364.24157,145.60642 H 386.9764"
       id="path4585"
       inkscape:connector-curvature="0" />
    <path
       style="fill:none;stroke:#000000;stroke-width:2.06500006;stroke-linecap:round;stroke-linejoin:round;stroke-miterlimit:4;stroke-dasharray:none;stroke-opacity:1"
       d="M 367.90301,219.55753 V 194.5544 h 16.66875 v 25.00313"
       id="path4589"
       inkscape:connector-curvature="0" />
    <path
       style="fill:none;stroke:#000000;stroke-width:2.06500006;stroke-linecap:round;stroke-linejoin:round;stroke-miterlimit:4;stroke-dasharray:none;stroke-opacity:1"
       d="M 344.2355,176.29817 H 406.984"
       id="path4591"
       inkscape:connector-curvature="0" />
    <path
       style="fill:none;stroke:#000000;stroke-width:2.06500006;stroke-linecap:round;stroke-linejoin:round;stroke-miterlimit:4;stroke-dasharray:none;stroke-opacity:1"
       d="M 344.23743,187.14595 H 406.984"
       id="path4593"
       inkscape:connector-curvature="0" />
    <path
       style="fill:none;stroke:#000000;stroke-width:2.06500006;stroke-linecap:round;stroke-linejoin:round;stroke-miterlimit:4;stroke-dasharray:none;stroke-opacity:1"
       d="m 344.2395,198.78775 h 23.66351"
       id="path4595"
       inkscape:connector-curvature="0" />
    <path
       style="fill:none;stroke:#000000;stroke-width:2.06500006;stroke-linecap:round;stroke-linejoin:round;stroke-miterlimit:4;stroke-dasharray:none;stroke-opacity:1"
       d="m 344.24119,209.04034 h 23.66182"
       id="path4597"
       inkscape:connector-curvature="0" />
    <path
       style="fill:none;stroke:#000000;stroke-width:2.06500006;stroke-linecap:round;stroke-linejoin:round;stroke-miterlimit:4;stroke-dasharray:none;stroke-opacity:1"
       d="m 384.57176,198.78775 h 22.54453"
       id="path4601"
       inkscape:connector-curvature="0" />
    <path
       style="fill:none;stroke:#000000;stroke-width:2.06500006;stroke-linecap:round;stroke-linejoin:round;stroke-miterlimit:4;stroke-dasharray:none;stroke-opacity:1"
       d="M 407.12749,209.04034 H 384.57176"
       id="path4605"
       inkscape:connector-curvature="0" />
    <path
       style="fill:none;stroke:#000000;stroke-width:2.06500006;stroke-linecap:round;stroke-linejoin:round;stroke-miterlimit:4;stroke-dasharray:none;stroke-opacity:1"
       d="m 373.19468,136.61065 h 4.49791"
       id="path4607"
       inkscape:connector-curvature="0" />
    <path
       style="fill:none;stroke:#000000;stroke-width:2.06500006;stroke-linecap:round;stroke-linejoin:round;stroke-miterlimit:4;stroke-dasharray:none;stroke-opacity:1"
       d="m 412.74988,168.06535 v 51.35988"
       id="path4611"
       inkscape:connector-curvature="0" />
    <path
       style="fill:none;stroke:#000000;stroke-width:2.06500006;stroke-linecap:round;stroke-linejoin:round;stroke-miterlimit:4;stroke-dasharray:none;stroke-opacity:1"
       d="m 338.81758,168.06535 v 51.35988"
       id="path4613"
       inkscape:connector-curvature="0" />
    <path
       style="fill:none;stroke:#000000;stroke-width:2.06500006;stroke-linecap:round;stroke-linejoin:round;stroke-miterlimit:4;stroke-dasharray:none;stroke-opacity:1"
       d="m 375.84051,127.8794 54.50417,38.62917"
       id="path4617"
       inkscape:connector-curvature="0" />
    <path
       inkscape:connector-curvature="0"
       id="path4619"
       d="m 375.84051,127.8794 -54.50417,38.62917"
       style="fill:none;stroke:#000000;stroke-width:2.06500006;stroke-linecap:round;stroke-linejoin:round;stroke-miterlimit:4;stroke-dasharray:none;stroke-opacity:1" />
  </g>
  <g
     inkscape:groupmode="layer"
     id="layer4"
     inkscape:label="cab 1"
     transform="translate(-15.273603,-18.112551)">
    <g
       id="g4659">
      <path
         inkscape:connector-curvature="0"
         id="path4518"
         d="M 95.820442,58.385977 A 40.27342,40.27342 0 0 1 55.547024,98.659396 40.27342,40.27342 0 0 1 15.273603,58.385977 40.27342,40.27342 0 0 1 55.547024,18.112551 40.27342,40.27342 0 0 1 95.820442,58.385977 Z"
         style="opacity:1;vector-effect:none;fill:#422a18;fill-opacity:1;fill-rule:nonzero;stroke:none;stroke-width:1.58749986;stroke-linecap:round;stroke-linejoin:round;stroke-miterlimit:4;stroke-dasharray:none;stroke-dashoffset:0;stroke-opacity:1;paint-order:fill markers stroke" />
      <path
         inkscape:connector-curvature="0"
         id="path4561"
         d="m 55.578581,33.145493 a 1.1700526,1.1700526 0 0 0 -0.03914,0.0015 1.1700526,1.1700526 0 0 0 -0.840893,0.351238 l -26.881105,20.04953 a 1.1700713,1.1700713 0 1 0 1.398439,1.876333 L 55.547273,35.785889 81.878657,55.424094 a 1.17007,1.17007 0 1 0 1.398436,-1.876333 L 56.399916,33.500856 a 1.1700526,1.1700526 0 0 0 -0.801718,-0.353852 1.1700526,1.1700526 0 0 0 -0.01957,-0.0015 z m -1.411495,4.566142 a 1.1700526,1.1700526 0 1 0 0,2.339872 h 2.3464 a 1.1700526,1.1700526 0 1 0 0,-2.339872 z m -4.673214,4.695408 a 1.1700526,1.1700526 0 1 0 0,2.339872 h 11.86519 a 1.1700526,1.1700526 0 1 0 0,-2.339872 z m 9.571022,5.047961 a 1.1700526,1.1700526 0 1 0 0,2.339872 h 8.9312 a 1.1700526,1.1700526 0 1 0 0,-2.339872 z m -16.239394,0.013 a 1.1700526,1.1700526 0 1 0 0,2.339871 h 13.140885 a 1.1700526,1.1700526 0 1 0 0,-2.339871 z m -6.617448,6.64356 a 1.1700526,1.1700526 0 0 0 -0.171051,0.017 h -1.955986 a 1.1700526,1.1700526 0 1 0 0,2.339872 h 0.974076 v 25.63413 a 1.1700526,1.1700526 0 0 0 0.0052,0.13056 1.1700526,1.1700526 0 0 0 1.164713,1.39322 h 38.585683 a 1.1700526,1.1700526 0 0 0 1.163407,-1.39844 1.1700526,1.1700526 0 0 0 0.0068,-0.12534 V 56.468437 h 0.791267 a 1.1700526,1.1700526 0 1 0 0,-2.339872 h -1.766646 a 1.1700526,1.1700526 0 0 0 -0.383883,0 h -9.316398 a 1.1700526,1.1700526 0 1 0 0,2.339872 h 8.335789 V 81.286476 H 61.274449 v -3.43407 h 10.601242 a 1.1700526,1.1700526 0 1 0 0,-2.33987 H 61.274449 v -3.011024 h 10.596012 a 1.1700526,1.1700526 0 1 0 0,-2.33987 H 61.274449 V 69.12228 a 1.1700526,1.1700526 0 0 0 -1.169935,-1.169936 h -8.698891 a 1.1700526,1.1700526 0 0 0 -1.169936,1.169936 v 1.039362 h -11.18114 a 1.1700526,1.1700526 0 1 0 0,2.33987 h 11.180989 v 3.011024 H 39.055853 a 1.1700526,1.1700526 0 1 0 0,2.33987 h 11.179683 v 3.43407 H 37.394962 V 56.468437 h 24.039834 a 1.1700526,1.1700526 0 1 0 0,-2.339872 h -25.01391 a 1.1700526,1.1700526 0 0 0 -0.212834,-0.017 z m 2.845189,4.312833 a 1.1700526,1.1700526 0 1 0 0,2.339872 H 71.801 a 1.1700526,1.1700526 0 1 0 0,-2.339872 z m 0.0014,5.661652 a 1.1700526,1.1700526 0 1 0 0,2.339871 h 32.746452 a 1.1700526,1.1700526 0 1 0 0,-2.339871 z m 13.52086,6.206138 h 6.358905 v 0.851341 a 1.1700526,1.1700526 0 0 0 0,0.377354 v 4.973524 a 1.1700526,1.1700526 0 0 0 0,0.37736 v 4.41468 h -6.358905 v -4.41729 a 1.1700526,1.1700526 0 0 0 0,-0.37083 v -4.980051 a 1.1700526,1.1700526 0 0 0 0,-0.369525 z"
         style="color:#000000;font-style:normal;font-variant:normal;font-weight:normal;font-stretch:normal;font-size:medium;line-height:normal;font-family:sans-serif;font-variant-ligatures:normal;font-variant-position:normal;font-variant-caps:normal;font-variant-numeric:normal;font-variant-alternates:normal;font-feature-settings:normal;text-indent:0;text-align:start;text-decoration:none;text-decoration-line:none;text-decoration-style:solid;text-decoration-color:#000000;letter-spacing:normal;word-spacing:normal;text-transform:none;writing-mode:lr-tb;direction:ltr;text-orientation:mixed;dominant-baseline:auto;baseline-shift:baseline;text-anchor:start;white-space:normal;shape-padding:0;clip-rule:nonzero;display:inline;overflow:visible;visibility:visible;opacity:1;isolation:auto;mix-blend-mode:normal;color-interpolation:sRGB;color-interpolation-filters:linearRGB;solid-color:#000000;solid-opacity:1;vector-effect:none;fill:#df760b;fill-opacity:1;fill-rule:nonzero;stroke:none;stroke-width:3.5;stroke-linecap:round;stroke-linejoin:round;stroke-miterlimit:4;stroke-dasharray:none;stroke-dashoffset:0;stroke-opacity:1;color-rendering:auto;image-rendering:auto;shape-rendering:auto;text-rendering:auto;enable-background:accumulate" />
    </g>
    <g
       id="g4664"
       transform="translate(0,2.7784285)">
      <path
         inkscape:connector-curvature="0"
         id="path4518-2"
         d="M 200.91512,55.607549 A 40.27342,40.27342 0 0 1 160.64171,95.880966 40.27342,40.27342 0 0 1 120.36827,55.607549 40.27342,40.27342 0 0 1 160.64171,15.334124 40.27342,40.27342 0 0 1 200.91512,55.607549 Z"
         style="opacity:1;vector-effect:none;fill:#422a18;fill-opacity:1;fill-rule:nonzero;stroke:none;stroke-width:1.58749986;stroke-linecap:round;stroke-linejoin:round;stroke-miterlimit:4;stroke-dasharray:none;stroke-dashoffset:0;stroke-opacity:1;paint-order:fill markers stroke" />
      <path
         inkscape:connector-curvature="0"
         d="m 164.30113,54.490186 a 1.076199,1.076199 0 0 0 -1.05928,1.091708 v 7.229987 a 1.076199,1.076199 0 1 0 2.15219,0 v -7.229987 a 1.076199,1.076199 0 0 0 -1.09291,-1.091708 z m 6.21876,-2.583343 a 1.076199,1.076199 0 0 0 -1.05929,1.091701 v 24.685252 a 1.076199,1.076199 0 1 0 2.15219,0 V 52.998544 a 1.076199,1.076199 0 0 0 -1.0929,-1.091701 z m -29.62255,-0.309857 a 1.076199,1.076199 0 1 0 0,2.152185 h 25.15964 a 1.076199,1.076199 0 1 0 0,-2.152185 z m 8.04307,-6.126271 a 1.076199,1.076199 0 1 0 0,2.152185 h 12.08681 a 1.076199,1.076199 0 1 0 0,-2.152185 z m 20.67632,6.126271 a 1.076199,1.076199 0 1 0 0,2.152185 h 10.54714 a 1.076199,1.076199 0 1 0 0,-2.152185 z m -5.73955,-6.138278 a 1.076199,1.076199 0 1 0 0,2.152177 h 8.2148 a 1.076199,1.076199 0 1 0 0,-2.152177 z m -8.80329,-4.643055 a 1.076199,1.076199 0 1 0 0,2.152184 h 10.91344 a 1.076199,1.076199 0 1 0 0,-2.152184 z m 1.75825,23.821734 a 1.076199,1.076199 0 0 0 -1.07608,1.076096 v 12.002733 a 1.076199,1.076199 0 1 0 2.15217,0 V 66.789572 h 5.84885 v 10.926644 a 1.076199,1.076199 0 1 0 2.15218,0 V 65.713483 a 1.076199,1.076199 0 0 0 -1.07609,-1.076096 z m -5.86566,-12.730544 a 1.076199,1.076199 0 0 0 -1.06047,1.091701 v 24.685252 a 1.076199,1.076199 0 1 0 2.15218,0 V 52.998544 a 1.076199,1.076199 0 0 0 -1.09171,-1.091701 z m 6.37729,2.583343 a 1.076199,1.076199 0 0 0 -1.05928,1.091708 v 7.229987 a 1.076199,1.076199 0 1 0 2.15219,0 v -7.229987 a 1.076199,1.076199 0 0 0 -1.09291,-1.091708 z m -14.45037,22.27605 a 1.076199,1.076199 0 1 0 0,2.15218 h 35.41373 a 1.076199,1.076199 0 1 0 0,-2.15218 z m 16.47885,-40.268154 a 1.076199,1.076199 0 1 0 0,2.152177 h 2.15819 a 1.076199,1.076199 0 1 0 0,-2.152177 z m 18.97091,15.408761 a 1.076199,1.076199 0 0 0 -1.05927,1.091701 v 24.654022 a 1.076199,1.076199 0 1 0 2.15218,0 V 52.998544 a 1.076199,1.076199 0 0 0 -1.09291,-1.091701 z m -35.48939,0 a 1.076199,1.076199 0 0 0 -1.06048,1.091701 v 24.654022 a 1.076199,1.076199 0 1 0 2.15218,0 V 52.998544 a 1.076199,1.076199 0 0 0 -1.0917,-1.091701 z M 160.58165,32.2982 a 1.076199,1.076199 0 0 0 -0.58368,1.946815 l 24.86299,18.543361 a 1.0762191,1.0762191 0 1 0 1.28627,-1.725833 l -24.8618,-18.54216 A 1.076199,1.076199 0 0 0 160.58165,32.2982 Z m 0.0889,-0.0015 a 1.076199,1.076199 0 0 0 -0.67256,0.223386 l -24.8618,18.542159 a 1.0762176,1.0762176 0 1 0 1.28626,1.725833 l 24.863,-18.543361 a 1.076199,1.076199 0 0 0 -0.6149,-1.948017 z"
         style="color:#000000;font-style:normal;font-variant:normal;font-weight:normal;font-stretch:normal;font-size:medium;line-height:normal;font-family:sans-serif;font-variant-ligatures:normal;font-variant-position:normal;font-variant-caps:normal;font-variant-numeric:normal;font-variant-alternates:normal;font-feature-settings:normal;text-indent:0;text-align:start;text-decoration:none;text-decoration-line:none;text-decoration-style:solid;text-decoration-color:#000000;letter-spacing:normal;word-spacing:normal;text-transform:none;writing-mode:lr-tb;direction:ltr;text-orientation:mixed;dominant-baseline:auto;baseline-shift:baseline;text-anchor:start;white-space:normal;shape-padding:0;clip-rule:nonzero;display:inline;overflow:visible;visibility:visible;opacity:1;isolation:auto;mix-blend-mode:normal;color-interpolation:sRGB;color-interpolation-filters:linearRGB;solid-color:#000000;solid-opacity:1;vector-effect:none;fill:#df760b;fill-opacity:1;fill-rule:nonzero;stroke:none;stroke-width:3.5;stroke-linecap:round;stroke-linejoin:round;stroke-miterlimit:4;stroke-dasharray:none;stroke-dashoffset:0;stroke-opacity:1;color-rendering:auto;image-rendering:auto;shape-rendering:auto;text-rendering:auto;enable-background:accumulate"
         id="path4604" />
    </g>
  </g>
  <g
     inkscape:groupmode="layer"
     id="layer2"
     inkscape:label="colors"
     style="display:none"
     transform="translate(-15.273603,-18.112551)">
    <ellipse
       style="opacity:1;vector-effect:none;fill:#422a18;fill-opacity:1;fill-rule:nonzero;stroke:none;stroke-width:1.58749998;stroke-linecap:round;stroke-linejoin:round;stroke-miterlimit:4;stroke-dasharray:none;stroke-dashoffset:0;stroke-opacity:1;paint-order:fill markers stroke"
       id="path4520"
       cx="47.344833"
       cy="-48.49395"
       rx="7.3705359"
       ry="8.1264877" />
    <ellipse
       style="opacity:1;vector-effect:none;fill:#694124;fill-opacity:1;fill-rule:nonzero;stroke:none;stroke-width:1.58749998;stroke-linecap:round;stroke-linejoin:round;stroke-miterlimit:4;stroke-dasharray:none;stroke-dashoffset:0;stroke-opacity:1;paint-order:fill markers stroke"
       id="path4522"
       cx="87.599297"
       cy="-54.352577"
       rx="9.0714283"
       ry="8.6934528" />
    <circle
       style="opacity:1;vector-effect:none;fill:#905930;fill-opacity:1;fill-rule:nonzero;stroke:none;stroke-width:1.58749998;stroke-linecap:round;stroke-linejoin:round;stroke-miterlimit:4;stroke-dasharray:none;stroke-dashoffset:0;stroke-opacity:1;paint-order:fill markers stroke"
       id="path4524"
       cx="126.34187"
       cy="-54.541565"
       r="9.6383924" />
    <ellipse
       style="opacity:1;vector-effect:none;fill:#7a7a7a;fill-opacity:1;fill-rule:nonzero;stroke:none;stroke-width:1.58749998;stroke-linecap:round;stroke-linejoin:round;stroke-miterlimit:4;stroke-dasharray:none;stroke-dashoffset:0;stroke-opacity:1;paint-order:fill markers stroke"
       id="path4526"
       cx="158.65883"
       cy="-50.95079"
       rx="12.473214"
       ry="10.583333" />
    <circle
       style="opacity:1;vector-effect:none;fill:#939393;fill-opacity:1;fill-rule:nonzero;stroke:none;stroke-width:1.58749998;stroke-linecap:round;stroke-linejoin:round;stroke-miterlimit:4;stroke-dasharray:none;stroke-dashoffset:0;stroke-opacity:1;paint-order:fill markers stroke"
       id="path4530"
       cx="194.18858"
       cy="-43.769241"
       r="8.6934528" />
    <path
       style="opacity:1;vector-effect:none;fill:#df760b;fill-opacity:1;fill-rule:nonzero;stroke:none;stroke-width:3.5;stroke-linecap:round;stroke-linejoin:round;stroke-miterlimit:4;stroke-dasharray:none;stroke-dashoffset:0;stroke-opacity:1;paint-order:fill markers stroke"
       d="M 27.689128,-40.507975 A 11.22532,14.967093 0 0 1 16.463808,-25.540882 11.22532,14.967093 0 0 1 5.2384884,-40.507975 11.22532,14.967093 0 0 1 16.463808,-55.475069 11.22532,14.967093 0 0 1 27.689128,-40.507975 Z"
       id="path4621"
       inkscape:connector-curvature="0" />
  </g>
</svg>
