<?xml version="1.0" encoding="UTF-8" standalone="no"?>
<svg
   xmlns:dc="http://purl.org/dc/elements/1.1/"
   xmlns:cc="http://creativecommons.org/ns#"
   xmlns:rdf="http://www.w3.org/1999/02/22-rdf-syntax-ns#"
   xmlns:svg="http://www.w3.org/2000/svg"
   xmlns="http://www.w3.org/2000/svg"
   id="svg4691"
   version="1.1"
   viewBox="0 0 80.546837 80.546844"
   height="80.546844mm"
   width="80.546837mm">
  <defs
     id="defs4685" />
  <metadata
     id="metadata4688">
    <rdf:RDF>
      <cc:Work
         rdf:about="">
        <dc:format>image/svg+xml</dc:format>
        <dc:type
           rdf:resource="http://purl.org/dc/dcmitype/StillImage" />
        <dc:title></dc:title>
      </cc:Work>
    </rdf:RDF>
  </metadata>
  <g
     transform="translate(-79.923009,-117.63134)"
     id="layer1">
    <g
       id="g4659"
       transform="translate(64.649406,99.518788)">
      <path
         style="opacity:1;vector-effect:none;fill:#422a18;fill-opacity:1;fill-rule:nonzero;stroke:none;stroke-width:1.58749986;stroke-linecap:round;stroke-linejoin:round;stroke-miterlimit:4;stroke-dasharray:none;stroke-dashoffset:0;stroke-opacity:1;paint-order:fill markers stroke"
         d="M 95.820442,58.385977 A 40.27342,40.27342 0 0 1 55.547024,98.659396 40.27342,40.27342 0 0 1 15.273603,58.385977 40.27342,40.27342 0 0 1 55.547024,18.112551 40.27342,40.27342 0 0 1 95.820442,58.385977 Z"
         id="path4518" />
      <path
         style="color:#000000;font-style:normal;font-variant:normal;font-weight:normal;font-stretch:normal;font-size:medium;line-height:normal;font-family:sans-serif;font-variant-ligatures:normal;font-variant-position:normal;font-variant-caps:normal;font-variant-numeric:normal;font-variant-alternates:normal;font-feature-settings:normal;text-indent:0;text-align:start;text-decoration:none;text-decoration-line:none;text-decoration-style:solid;text-decoration-color:#000000;letter-spacing:normal;word-spacing:normal;text-transform:none;writing-mode:lr-tb;direction:ltr;text-orientation:mixed;dominant-baseline:auto;baseline-shift:baseline;text-anchor:start;white-space:normal;shape-padding:0;clip-rule:nonzero;display:inline;overflow:visible;visibility:visible;opacity:1;isolation:auto;mix-blend-mode:normal;color-interpolation:sRGB;color-interpolation-filters:linearRGB;solid-color:#000000;solid-opacity:1;vector-effect:none;fill:#df760b;fill-opacity:1;fill-rule:nonzero;stroke:none;stroke-width:3.5;stroke-linecap:round;stroke-linejoin:round;stroke-miterlimit:4;stroke-dasharray:none;stroke-dashoffset:0;stroke-opacity:1;color-rendering:auto;image-rendering:auto;shape-rendering:auto;text-rendering:auto;enable-background:accumulate"
         d="m 55.578581,33.145493 a 1.1700526,1.1700526 0 0 0 -0.03914,0.0015 1.1700526,1.1700526 0 0 0 -0.840893,0.351238 l -26.881105,20.04953 a 1.1700713,1.1700713 0 1 0 1.398439,1.876333 L 55.547273,35.785889 81.878657,55.424094 a 1.17007,1.17007 0 1 0 1.398436,-1.876333 L 56.399916,33.500856 a 1.1700526,1.1700526 0 0 0 -0.801718,-0.353852 1.1700526,1.1700526 0 0 0 -0.01957,-0.0015 z m -1.411495,4.566142 a 1.1700526,1.1700526 0 1 0 0,2.339872 h 2.3464 a 1.1700526,1.1700526 0 1 0 0,-2.339872 z m -4.673214,4.695408 a 1.1700526,1.1700526 0 1 0 0,2.339872 h 11.86519 a 1.1700526,1.1700526 0 1 0 0,-2.339872 z m 9.571022,5.047961 a 1.1700526,1.1700526 0 1 0 0,2.339872 h 8.9312 a 1.1700526,1.1700526 0 1 0 0,-2.339872 z m -16.239394,0.013 a 1.1700526,1.1700526 0 1 0 0,2.339871 h 13.140885 a 1.1700526,1.1700526 0 1 0 0,-2.339871 z m -6.617448,6.64356 a 1.1700526,1.1700526 0 0 0 -0.171051,0.017 h -1.955986 a 1.1700526,1.1700526 0 1 0 0,2.339872 h 0.974076 v 25.63413 a 1.1700526,1.1700526 0 0 0 0.0052,0.13056 1.1700526,1.1700526 0 0 0 1.164713,1.39322 h 38.585683 a 1.1700526,1.1700526 0 0 0 1.163407,-1.39844 1.1700526,1.1700526 0 0 0 0.0068,-0.12534 V 56.468437 h 0.791267 a 1.1700526,1.1700526 0 1 0 0,-2.339872 h -1.766646 a 1.1700526,1.1700526 0 0 0 -0.383883,0 h -9.316398 a 1.1700526,1.1700526 0 1 0 0,2.339872 h 8.335789 V 81.286476 H 61.274449 v -3.43407 h 10.601242 a 1.1700526,1.1700526 0 1 0 0,-2.33987 H 61.274449 v -3.011024 h 10.596012 a 1.1700526,1.1700526 0 1 0 0,-2.33987 H 61.274449 V 69.12228 a 1.1700526,1.1700526 0 0 0 -1.169935,-1.169936 h -8.698891 a 1.1700526,1.1700526 0 0 0 -1.169936,1.169936 v 1.039362 h -11.18114 a 1.1700526,1.1700526 0 1 0 0,2.33987 h 11.180989 v 3.011024 H 39.055853 a 1.1700526,1.1700526 0 1 0 0,2.33987 h 11.179683 v 3.43407 H 37.394962 V 56.468437 h 24.039834 a 1.1700526,1.1700526 0 1 0 0,-2.339872 h -25.01391 a 1.1700526,1.1700526 0 0 0 -0.212834,-0.017 z m 2.845189,4.312833 a 1.1700526,1.1700526 0 1 0 0,2.339872 H 71.801 a 1.1700526,1.1700526 0 1 0 0,-2.339872 z m 0.0014,5.661652 a 1.1700526,1.1700526 0 1 0 0,2.339871 h 32.746452 a 1.1700526,1.1700526 0 1 0 0,-2.339871 z m 13.52086,6.206138 h 6.358905 v 0.851341 a 1.1700526,1.1700526 0 0 0 0,0.377354 v 4.973524 a 1.1700526,1.1700526 0 0 0 0,0.37736 v 4.41468 h -6.358905 v -4.41729 a 1.1700526,1.1700526 0 0 0 0,-0.37083 v -4.980051 a 1.1700526,1.1700526 0 0 0 0,-0.369525 z"
         id="path4561" />
    </g>
  </g>
</svg>
